<?xml version="1.0" encoding="UTF-8" standalone="no"?><!-- Generator: Gravit.io --><svg xmlns="http://www.w3.org/2000/svg" xmlns:xlink="http://www.w3.org/1999/xlink" style="isolation:isolate" viewBox="0 0 203.549 184.664" width="203.549pt" height="184.664pt"><defs><clipPath id="_clipPath_44mjUkilPj9ckPl3WDExgXmSQlDc031x"><rect width="203.549" height="184.664"/></clipPath></defs><g clip-path="url(#_clipPath_44mjUkilPj9ckPl3WDExgXmSQlDc031x)"><clipPath id="_clipPath_Cs7Jnap3F9i2tljLf8yBI2Mtujd57r8z"><rect x="0" y="0" width="203.549" height="184.664" transform="matrix(1,0,0,1,0,0)" fill="rgb(255,255,255)"/></clipPath><g clip-path="url(#_clipPath_Cs7Jnap3F9i2tljLf8yBI2Mtujd57r8z)"><g><path d=" M 81.478 139.247 C 77.219 142.882 71.026 143.109 66.501 139.814 C 66.501 139.814 79.897 150.169 84.591 153.525 C 85.51 154.182 86.422 154.846 87.334 155.51 C 94.775 160.934 102.075 166.293 110.677 166.289 C 122.819 166.282 132.658 156.434 132.651 144.291 C 132.646 132.149 122.798 122.31 110.655 122.317 C 98.502 122.322 89.549 132.359 81.478 139.247 Z " fill="rgb(255,193,51)"/><path d=" M 87.333 155.51 C 84.308 153.393 80.36 153.661 77.608 156.124 C 67.703 164.994 50.436 184.654 30.997 184.664 C 13.885 184.672 0.008 170.808 0 153.696 C -0.009 136.585 13.856 122.706 30.968 122.698 C 46.288 122.692 60.523 135.204 72.689 144.32 C 77.003 147.552 87.333 155.51 87.333 155.51 Z " fill="rgb(241,143,1)"/><path d=" M 88.881 81.935 C 87.862 76.43 90.762 70.953 95.879 68.681 C 95.879 68.681 80.214 75.106 74.959 77.493 C 73.931 77.959 72.899 78.418 71.869 78.875 C 63.45 82.607 55.159 86.251 50.863 93.701 C 44.797 104.219 48.406 117.665 58.925 123.731 C 69.443 129.797 82.889 126.187 88.955 115.669 C 95.026 105.141 90.811 92.37 88.881 81.935 Z " fill="rgb(212,109,164)"/><path d=" M 71.869 78.875 C 75.215 77.314 76.958 73.76 76.199 70.147 C 73.471 57.131 65.077 32.348 74.789 15.51 C 83.338 0.687 102.283 -4.4 117.107 4.148 C 131.93 12.698 137.017 31.644 128.467 46.467 C 120.813 59.739 102.859 65.81 88.881 71.788 C 83.926 73.908 71.869 78.875 71.869 78.875 Z " fill="rgb(162,59,114)"/><path d=" M 134.813 117.002 C 140.09 118.873 143.383 124.122 142.793 129.69 L 142.793 129.69 C 142.793 129.69 145.061 112.91 145.621 107.168 C 145.73 106.044 145.85 104.921 145.969 103.8 C 146.946 94.644 147.935 85.641 143.631 78.196 C 137.555 67.682 124.107 64.086 113.594 70.162 C 103.082 76.238 99.485 89.686 105.562 100.2 C 111.643 110.722 124.811 113.457 134.813 117.002 Z " fill="rgb(96,184,221)"/><path d=" M 145.969 103.8 C 145.648 107.478 147.855 110.764 151.363 111.914 C 163.999 116.06 189.657 121.181 199.385 138.012 C 207.948 152.826 202.88 171.778 188.065 180.341 C 173.251 188.904 154.299 183.834 145.736 169.02 C 138.069 155.756 141.788 137.172 143.6 122.077 C 144.243 116.725 145.969 103.8 145.969 103.8 Z " fill="rgb(46,134,171)"/></g></g></g></svg>